<svg width="1920" height="499" viewBox="0 0 1920 499" fill="none" xmlns="http://www.w3.org/2000/svg">
<path opacity="0.7" d="M162.009 884.847C203.669 1110.7 120.801 1292.28 210.074 1336.7C299.348 1381.12 561.234 1288.73 715.854 1255.01C870.352 1220.48 917.933 1244.14 1079.13 1394.8C1241.14 1545.34 1516.42 1823.33 1678.64 1835.57C1840.05 1847.92 1887.93 1594.16 1950.24 1361.39C2012.08 1128.27 2088.82 916.49 2126.89 650.308C2164.97 384.126 2164.84 63.8942 1982.45 8.82258C1800.18 -45.4263 1435.64 165.485 1180.69 233.74C925.4 302.466 779.706 228.537 566.221 184.772C352.385 141.479 70.2876 128 12.1032 257.615C-45.7308 386.758 120.228 658.172 162.009 884.847Z" fill="url(#paint0_linear)"/>
<defs>
<linearGradient id="paint0_linear" x1="97.3639" y1="0.000561713" x2="97.3639" y2="918" gradientUnits="userSpaceOnUse">
<stop stop-color="#FFFCFC"/>
<stop offset="1" stop-color="#EAECED"/>
</linearGradient>
</defs>
</svg>
