<svg xmlns="http://www.w3.org/2000/svg" width="90" height="81" fill="none" viewBox="0 0 90 81">
    <path fill="url(#a)" d="M27.938 1.89s2.452 20.767-15.801 39.586c-1.288 1.327 21.803-18.42 21.803-18.42L27.938 1.89z"/>
    <path fill="url(#b)" d="M7.901 43.223S27.37 26.612 26.395 0L8.242 15.312l-.34 27.911z"/>
    <path fill="url(#c)" fill-rule="evenodd" d="M2.596 59.104c.925-10.453 6.206-13.9 6.206-13.9C5.735 45.969.528 55.639.09 59.246c-.817 6.727 4.21 7.301 4.137 7.176l-.092-.153c-.592-.984-1.894-3.146-1.539-7.164zm1.533 9.238C1.6 68.624.674 67.2.674 67.2c6.44 12.814 19.894 13.855 19.71 13.798C7.043 76.855 4.62 69.749 4.204 68.524c-.041-.12-.063-.183-.074-.182z" clip-rule="evenodd"/>
    <path fill="url(#d)" d="M21.745 69.399c3.576 0 5.62-1.97 6.787-3.99l-2.968-1.435c-.68 1.338-2.14 2.36-3.819 2.36-2.944 0-5.084-2.263-5.084-5.328 0-3.066 2.14-5.328 5.084-5.328 1.679 0 3.138 1.046 3.82 2.36l2.967-1.46c-1.143-2.019-3.21-3.965-6.787-3.965-4.865 0-8.636 3.406-8.636 8.393s3.77 8.393 8.636 8.393zm16.312-.292V55.92h4.72v-3.04H29.835v3.04h4.743v13.186h3.48z"/>
    <path fill="url(#e)" d="M60.366 69.107L54.114 52.88h-4.33l-6.277 16.227h3.942l1.021-2.75h6.958l.997 2.75h3.941zm-5.887-5.79h-5.06l2.53-6.982 2.53 6.982zm11.084 5.79V63.34h4.135c3.504 0 5.45-2.408 5.45-5.23 0-2.846-1.922-5.23-5.45-5.23h-7.59v16.226h3.455zm3.673-8.807h-3.673v-4.379h3.673c1.362 0 2.384.828 2.384 2.19 0 1.338-1.022 2.19-2.384 2.19zm15.522 8.807V55.92h4.72v-3.04H76.534v3.04h4.744v13.186h3.479z"/>
    <defs>
        <linearGradient id="a" x1="30.374" x2="10.162" y1="29.325" y2="21.994" gradientUnits="userSpaceOnUse">
            <stop stop-color="#FFCB52"/>
            <stop offset="1" stop-color="#FF7B02"/>
        </linearGradient>
        <linearGradient id="b" x1="16.539" x2="36.59" y1=".063" y2="10.776" gradientUnits="userSpaceOnUse">
            <stop stop-color="#1DE5E2"/>
            <stop offset="1" stop-color="#B588F7"/>
        </linearGradient>
        <linearGradient id="c" x1="20.31" x2="-19.511" y1="81.074" y2="56.181" gradientUnits="userSpaceOnUse">
            <stop stop-color="#FFCB52"/>
            <stop offset="1" stop-color="#FF7B02"/>
        </linearGradient>
        <linearGradient id="d" x1="48.686" x2="57.928" y1="47.059" y2="77.367" gradientUnits="userSpaceOnUse">
            <stop stop-color="#1DE5E2"/>
            <stop offset="1" stop-color="#B588F7"/>
        </linearGradient>
        <linearGradient id="e" x1="77.63" x2="57.189" y1="67.552" y2="32.161" gradientUnits="userSpaceOnUse">
            <stop stop-color="#FFCB52"/>
            <stop offset="1" stop-color="#FF7B02"/>
        </linearGradient>
    </defs>
</svg>
