<svg width="1173" height="1273" viewBox="0 0 1173 1273" fill="none" xmlns="http://www.w3.org/2000/svg">
<path opacity="0.4" d="M1130.07 46.2038C1209.82 130.909 1162.55 345.727 1116.03 501.355C1069.17 657.311 1022.74 753.734 976.136 871.346C929.53 988.958 882.755 1127.42 779.571 1204.29C676.386 1281.16 517.135 1296.11 399.084 1236.03C281.033 1175.96 203.846 1040.85 127.044 903.74C50.2427 766.627 -26.1739 627.505 8.66865 523.062C43.8558 418.291 190.647 347.87 313.928 275.192C437.201 202.851 537.309 127.925 690.585 67.7547C843.86 7.58461 1050.31 -38.1656 1130.07 46.2038Z" fill="url(#paint0_linear)"/>
<defs>
<linearGradient id="paint0_linear" x1="53.1941" y1="5.24084e-05" x2="1720.95" y2="1561.25" gradientUnits="userSpaceOnUse">
<stop stop-color="#FFFCFC"/>
<stop offset="1" stop-color="#EAECED"/>
</linearGradient>
</defs>
</svg>
