<svg xmlns="http://www.w3.org/2000/svg" width="1099" height="847" fill="none" viewBox="0 0 1099 847">
    <path fill="url(#a)" d="M13.705 92.195C60.832 11.712 236.82-.54 367.094.018 497.698.765 582.398 14.65 683.441 23.876c101.043 9.227 218.169 13.864 300.668 75.81 82.501 61.945 130.041 181.007 110.531 285.363-19.51 104.357-105.996 194.269-194.115 284.339-88.12 90.07-177.872 180.298-266.12 177.137-88.579-3.351-175.984-100.282-259.805-178.627-83.56-78.415-163.867-138.435-244.852-242.671C48.763 320.991-33.162 172.607 13.705 92.195z" opacity=".4"/>
    <defs>
        <linearGradient id="a" x1="49.838" x2="1120.15" y2="1411.55" gradientUnits="userSpaceOnUse">
            <stop stop-color="#FFFCFC"/>
            <stop offset="1" stop-color="#EAECED"/>
        </linearGradient>
    </defs>
</svg>
