<svg width="1410" height="1662" viewBox="0 0 1410 1662" fill="none" xmlns="http://www.w3.org/2000/svg">
<path opacity="0.4" d="M996.542 1470.14C844.501 1576.35 682.615 1662 521.788 1662C360.534 1662.22 200.011 1576.7 105.75 1454.79C11.9164 1332.65 -15.5562 1173.81 7.94938 1046.28C31.7827 918.86 105.839 822.885 111.9 678.574C117.734 533.835 55.2454 340.662 106.45 198.664C157.754 56.3386 322.851 -35.1386 453.261 12.8998C583.999 61.0382 680.906 248.237 837.396 354.029C994.312 459.593 1210.81 483.751 1320.54 596.05C1430.27 708.35 1432.7 909.347 1362.33 1073.08C1292.29 1236.91 1149.01 1363.71 996.542 1470.14Z" fill="url(#paint0_linear)"/>
<defs>
<linearGradient id="paint0_linear" x1="63.9418" y1="6.84233e-05" x2="2222.19" y2="1860.2" gradientUnits="userSpaceOnUse">
<stop stop-color="#FFFCFC"/>
<stop offset="1" stop-color="#EAECED"/>
</linearGradient>
</defs>
</svg>
