<svg width="943" height="973" viewBox="0 0 943 973" fill="none" xmlns="http://www.w3.org/2000/svg">
<path opacity="0.4" d="M1131.76 191.251C1120.79 249.354 1058.63 302.309 1030.23 374.289C1001.83 446.269 1007.19 537.273 969.092 648.236C930.751 758.916 849.473 889.597 733.239 943.757C617.005 997.918 466.338 975.601 423.668 867.131C381.281 758.421 447.697 563.36 367.08 422.366C286.18 281.613 59.0528 194.728 10.9624 94.7773C-36.8454 -5.41409 94.6241 -118.389 232.448 -162.661C370.23 -206.409 514.566 -180.649 625.068 -163.123C735.527 -145.075 811.871 -135.02 879.225 -108.043C946.579 -81.0662 1004.7 -37.4495 1053.86 16.2454C1102.78 69.6578 1143.01 132.908 1131.76 191.251Z" fill="url(#paint0_linear)"/>
<defs>
<linearGradient id="paint0_linear" x1="52.3126" y1="-186.777" x2="1573.84" y2="1324.1" gradientUnits="userSpaceOnUse">
<stop stop-color="#FFFCFC"/>
<stop offset="1" stop-color="#EAECED"/>
</linearGradient>
</defs>
</svg>
