<svg width="1241" height="1271" viewBox="0 0 1241 1271" fill="none" xmlns="http://www.w3.org/2000/svg">
<path opacity="0.4" d="M55.8268 494.877C132.252 433.769 288.453 439.359 394.041 358.695C499.399 278.348 554.418 111.702 654.926 41.3994C755.39 -29.1767 901.892 -3.49673 999.306 78.632C1096.99 160.717 1145.82 298.933 1188.15 428.081C1230.19 557.273 1265.42 677.167 1216.65 761.929C1167.85 846.417 1034.82 896.09 956.798 994.526C878.816 1093.24 855.556 1240.75 790.886 1266.56C726.215 1292.36 619.86 1196.5 557.866 1107.58C495.872 1018.65 477.965 936.704 390.187 888.418C302.179 840.45 144.344 826.415 63.5483 755.104C-17.2036 684.068 -20.5545 556.26 55.8268 494.877Z" fill="url(#paint0_linear)"/>
<defs>
<linearGradient id="paint0_linear" x1="56.9044" y1="0.363334" x2="1724.91" y2="1653.8" gradientUnits="userSpaceOnUse">
<stop stop-color="#FFFCFC"/>
<stop offset="1" stop-color="#EAECED"/>
</linearGradient>
</defs>
</svg>
