<svg xmlns="http://www.w3.org/2000/svg" width="838" height="881" fill="none" viewBox="0 0 838 881">
    <path fill="url(#a)" d="M835.363 148.756c-13.32 75.309-107.881 152.64-128.225 254.478-20.374 101.533 33.332 227.74 10.622 320.874-22.544 93.273-121.779 153.806-221.334 155.874-99.693 2.235-199.677-53.691-291.162-107.654-91.347-54.129-173.89-106.324-189.01-181.241-14.955-74.778 37.484-172.584 32.48-270.629-5.17-98.182-67.642-196.772-43.003-245.294C30.37 26.644 142.259 28.023 224.534 48.224c82.274 20.201 135.071 59.058 211.506 42.1C512.447 73.059 612.325-.16 696.543 0c84.052.02 151.973 73.309 138.82 148.756z"/>
    <defs>
        <linearGradient id="a" x1="37.957" x2="1192.74" y2="1115.81" gradientUnits="userSpaceOnUse">
            <stop stop-color="#FFFCFC"/>
            <stop offset="1" stop-color="#EAECED"/>
        </linearGradient>
    </defs>
</svg>
